<mxfile host="65bd71144e" pages="2">
    <diagram id="aH0BjveRwAFQGz4sE5M4" name="需求用例图1.2">
        <mxGraphModel dx="934" dy="553" grid="1" gridSize="10" guides="1" tooltips="1" connect="1" arrows="1" fold="1" page="1" pageScale="1" pageWidth="827" pageHeight="1169" math="0" shadow="0">
            <root>
                <mxCell id="wGvr0MLR_YLytmX5ozlR-0"/>
                <mxCell id="wGvr0MLR_YLytmX5ozlR-1" parent="wGvr0MLR_YLytmX5ozlR-0"/>
                <mxCell id="wGvr0MLR_YLytmX5ozlR-7" value="" style="html=1;" parent="wGvr0MLR_YLytmX5ozlR-1" vertex="1">
                    <mxGeometry x="295" y="80" width="380" height="950" as="geometry"/>
                </mxCell>
                <mxCell id="wGvr0MLR_YLytmX5ozlR-32" style="edgeStyle=none;html=1;entryX=0;entryY=0.5;entryDx=0;entryDy=0;" parent="wGvr0MLR_YLytmX5ozlR-1" source="wGvr0MLR_YLytmX5ozlR-2" target="wGvr0MLR_YLytmX5ozlR-9" edge="1">
                    <mxGeometry relative="1" as="geometry"/>
                </mxCell>
                <mxCell id="wGvr0MLR_YLytmX5ozlR-33" style="edgeStyle=none;html=1;entryX=0;entryY=0.5;entryDx=0;entryDy=0;" parent="wGvr0MLR_YLytmX5ozlR-1" source="wGvr0MLR_YLytmX5ozlR-2" target="wGvr0MLR_YLytmX5ozlR-19" edge="1">
                    <mxGeometry relative="1" as="geometry"/>
                </mxCell>
                <mxCell id="wGvr0MLR_YLytmX5ozlR-2" value="基础设施维护人员" style="shape=umlActor;verticalLabelPosition=bottom;verticalAlign=top;" parent="wGvr0MLR_YLytmX5ozlR-1" vertex="1">
                    <mxGeometry x="110" y="250" width="30" height="60" as="geometry"/>
                </mxCell>
                <mxCell id="wGvr0MLR_YLytmX5ozlR-34" style="edgeStyle=none;html=1;entryX=0;entryY=0.5;entryDx=0;entryDy=0;" parent="wGvr0MLR_YLytmX5ozlR-1" source="wGvr0MLR_YLytmX5ozlR-3" target="wGvr0MLR_YLytmX5ozlR-9" edge="1">
                    <mxGeometry relative="1" as="geometry"/>
                </mxCell>
                <mxCell id="wGvr0MLR_YLytmX5ozlR-35" style="edgeStyle=none;html=1;entryX=0;entryY=0.5;entryDx=0;entryDy=0;" parent="wGvr0MLR_YLytmX5ozlR-1" source="wGvr0MLR_YLytmX5ozlR-3" target="wGvr0MLR_YLytmX5ozlR-19" edge="1">
                    <mxGeometry relative="1" as="geometry"/>
                </mxCell>
                <mxCell id="wGvr0MLR_YLytmX5ozlR-54" style="edgeStyle=none;html=1;entryX=0;entryY=0.5;entryDx=0;entryDy=0;" parent="wGvr0MLR_YLytmX5ozlR-1" source="wGvr0MLR_YLytmX5ozlR-3" target="wGvr0MLR_YLytmX5ozlR-40" edge="1">
                    <mxGeometry relative="1" as="geometry"/>
                </mxCell>
                <mxCell id="wGvr0MLR_YLytmX5ozlR-55" style="edgeStyle=none;html=1;entryX=0;entryY=0.5;entryDx=0;entryDy=0;" parent="wGvr0MLR_YLytmX5ozlR-1" source="wGvr0MLR_YLytmX5ozlR-3" target="wGvr0MLR_YLytmX5ozlR-47" edge="1">
                    <mxGeometry relative="1" as="geometry"/>
                </mxCell>
                <mxCell id="wGvr0MLR_YLytmX5ozlR-3" value="应用开发人员" style="shape=umlActor;verticalLabelPosition=bottom;verticalAlign=top;" parent="wGvr0MLR_YLytmX5ozlR-1" vertex="1">
                    <mxGeometry x="60" y="420" width="30" height="60" as="geometry"/>
                </mxCell>
                <mxCell id="wGvr0MLR_YLytmX5ozlR-36" style="edgeStyle=none;html=1;entryX=0;entryY=0.5;entryDx=0;entryDy=0;" parent="wGvr0MLR_YLytmX5ozlR-1" source="wGvr0MLR_YLytmX5ozlR-4" target="wGvr0MLR_YLytmX5ozlR-9" edge="1">
                    <mxGeometry relative="1" as="geometry"/>
                </mxCell>
                <mxCell id="wGvr0MLR_YLytmX5ozlR-37" style="edgeStyle=none;html=1;entryX=0;entryY=0.5;entryDx=0;entryDy=0;" parent="wGvr0MLR_YLytmX5ozlR-1" source="wGvr0MLR_YLytmX5ozlR-4" target="wGvr0MLR_YLytmX5ozlR-19" edge="1">
                    <mxGeometry relative="1" as="geometry"/>
                </mxCell>
                <mxCell id="wGvr0MLR_YLytmX5ozlR-56" style="edgeStyle=none;html=1;entryX=0;entryY=0.5;entryDx=0;entryDy=0;" parent="wGvr0MLR_YLytmX5ozlR-1" source="wGvr0MLR_YLytmX5ozlR-4" target="wGvr0MLR_YLytmX5ozlR-40" edge="1">
                    <mxGeometry relative="1" as="geometry"/>
                </mxCell>
                <mxCell id="wGvr0MLR_YLytmX5ozlR-57" style="edgeStyle=none;html=1;entryX=0;entryY=0.5;entryDx=0;entryDy=0;" parent="wGvr0MLR_YLytmX5ozlR-1" source="wGvr0MLR_YLytmX5ozlR-4" target="wGvr0MLR_YLytmX5ozlR-47" edge="1">
                    <mxGeometry relative="1" as="geometry"/>
                </mxCell>
                <mxCell id="wGvr0MLR_YLytmX5ozlR-4" value="应用部署人员" style="shape=umlActor;verticalLabelPosition=bottom;verticalAlign=top;" parent="wGvr0MLR_YLytmX5ozlR-1" vertex="1">
                    <mxGeometry x="60" y="610" width="30" height="60" as="geometry"/>
                </mxCell>
                <mxCell id="wGvr0MLR_YLytmX5ozlR-38" style="edgeStyle=none;html=1;entryX=0;entryY=0.5;entryDx=0;entryDy=0;" parent="wGvr0MLR_YLytmX5ozlR-1" source="wGvr0MLR_YLytmX5ozlR-6" target="wGvr0MLR_YLytmX5ozlR-30" edge="1">
                    <mxGeometry relative="1" as="geometry"/>
                </mxCell>
                <mxCell id="wGvr0MLR_YLytmX5ozlR-6" value="配置中心运维人员" style="shape=umlActor;verticalLabelPosition=bottom;verticalAlign=top;" parent="wGvr0MLR_YLytmX5ozlR-1" vertex="1">
                    <mxGeometry x="110" y="790" width="30" height="60" as="geometry"/>
                </mxCell>
                <mxCell id="wGvr0MLR_YLytmX5ozlR-8" value="配置中心" style="text;strokeColor=none;fillColor=none;align=center;verticalAlign=middle;rounded=0;" parent="wGvr0MLR_YLytmX5ozlR-1" vertex="1">
                    <mxGeometry x="455" y="80" width="60" height="30" as="geometry"/>
                </mxCell>
                <mxCell id="wGvr0MLR_YLytmX5ozlR-9" value="提交" style="ellipse;" parent="wGvr0MLR_YLytmX5ozlR-1" vertex="1">
                    <mxGeometry x="335" y="200" width="120" height="50" as="geometry"/>
                </mxCell>
                <mxCell id="wGvr0MLR_YLytmX5ozlR-12" value="提交基础设施信息" style="ellipse;" parent="wGvr0MLR_YLytmX5ozlR-1" vertex="1">
                    <mxGeometry x="510" y="130" width="120" height="50" as="geometry"/>
                </mxCell>
                <mxCell id="wGvr0MLR_YLytmX5ozlR-13" value="" style="endArrow=open;endSize=12;dashed=1;html=1;exitX=1;exitY=0.5;exitDx=0;exitDy=0;entryX=0;entryY=0.5;entryDx=0;entryDy=0;" parent="wGvr0MLR_YLytmX5ozlR-1" source="wGvr0MLR_YLytmX5ozlR-9" target="wGvr0MLR_YLytmX5ozlR-12" edge="1">
                    <mxGeometry width="160" relative="1" as="geometry">
                        <mxPoint x="420" y="250" as="sourcePoint"/>
                        <mxPoint x="580" y="250" as="targetPoint"/>
                    </mxGeometry>
                </mxCell>
                <mxCell id="wGvr0MLR_YLytmX5ozlR-14" value="提交部署信息" style="ellipse;" parent="wGvr0MLR_YLytmX5ozlR-1" vertex="1">
                    <mxGeometry x="510" y="200" width="120" height="50" as="geometry"/>
                </mxCell>
                <mxCell id="wGvr0MLR_YLytmX5ozlR-15" value="提交配置信息" style="ellipse;" parent="wGvr0MLR_YLytmX5ozlR-1" vertex="1">
                    <mxGeometry x="510" y="270" width="120" height="50" as="geometry"/>
                </mxCell>
                <mxCell id="wGvr0MLR_YLytmX5ozlR-16" value="" style="endArrow=open;endSize=12;dashed=1;html=1;exitX=1;exitY=0.5;exitDx=0;exitDy=0;entryX=0;entryY=0.5;entryDx=0;entryDy=0;" parent="wGvr0MLR_YLytmX5ozlR-1" source="wGvr0MLR_YLytmX5ozlR-9" target="wGvr0MLR_YLytmX5ozlR-14" edge="1">
                    <mxGeometry width="160" relative="1" as="geometry">
                        <mxPoint x="430" y="165" as="sourcePoint"/>
                        <mxPoint x="520" y="165" as="targetPoint"/>
                    </mxGeometry>
                </mxCell>
                <mxCell id="wGvr0MLR_YLytmX5ozlR-17" value="" style="endArrow=open;endSize=12;dashed=1;html=1;exitX=1;exitY=0.5;exitDx=0;exitDy=0;entryX=0;entryY=0.5;entryDx=0;entryDy=0;" parent="wGvr0MLR_YLytmX5ozlR-1" source="wGvr0MLR_YLytmX5ozlR-9" target="wGvr0MLR_YLytmX5ozlR-15" edge="1">
                    <mxGeometry width="160" relative="1" as="geometry">
                        <mxPoint x="440" y="175" as="sourcePoint"/>
                        <mxPoint x="530" y="175" as="targetPoint"/>
                    </mxGeometry>
                </mxCell>
                <mxCell id="wGvr0MLR_YLytmX5ozlR-19" value="获取" style="ellipse;" parent="wGvr0MLR_YLytmX5ozlR-1" vertex="1">
                    <mxGeometry x="335" y="480" width="120" height="50" as="geometry"/>
                </mxCell>
                <mxCell id="wGvr0MLR_YLytmX5ozlR-20" value="获取基础设施信息" style="ellipse;" parent="wGvr0MLR_YLytmX5ozlR-1" vertex="1">
                    <mxGeometry x="510" y="340" width="120" height="50" as="geometry"/>
                </mxCell>
                <mxCell id="wGvr0MLR_YLytmX5ozlR-21" value="" style="endArrow=open;endSize=12;dashed=1;html=1;exitX=1;exitY=0.5;exitDx=0;exitDy=0;entryX=0;entryY=0.5;entryDx=0;entryDy=0;" parent="wGvr0MLR_YLytmX5ozlR-1" source="wGvr0MLR_YLytmX5ozlR-19" target="wGvr0MLR_YLytmX5ozlR-20" edge="1">
                    <mxGeometry width="160" relative="1" as="geometry">
                        <mxPoint x="420" y="460" as="sourcePoint"/>
                        <mxPoint x="580" y="460" as="targetPoint"/>
                    </mxGeometry>
                </mxCell>
                <mxCell id="wGvr0MLR_YLytmX5ozlR-22" value="获取部署信息" style="ellipse;" parent="wGvr0MLR_YLytmX5ozlR-1" vertex="1">
                    <mxGeometry x="510" y="410" width="120" height="50" as="geometry"/>
                </mxCell>
                <mxCell id="wGvr0MLR_YLytmX5ozlR-23" value="获取配置信息" style="ellipse;" parent="wGvr0MLR_YLytmX5ozlR-1" vertex="1">
                    <mxGeometry x="510" y="480" width="120" height="50" as="geometry"/>
                </mxCell>
                <mxCell id="wGvr0MLR_YLytmX5ozlR-24" value="" style="endArrow=open;endSize=12;dashed=1;html=1;exitX=1;exitY=0.5;exitDx=0;exitDy=0;entryX=0;entryY=0.5;entryDx=0;entryDy=0;" parent="wGvr0MLR_YLytmX5ozlR-1" source="wGvr0MLR_YLytmX5ozlR-19" target="wGvr0MLR_YLytmX5ozlR-22" edge="1">
                    <mxGeometry width="160" relative="1" as="geometry">
                        <mxPoint x="430" y="375" as="sourcePoint"/>
                        <mxPoint x="520" y="375" as="targetPoint"/>
                    </mxGeometry>
                </mxCell>
                <mxCell id="wGvr0MLR_YLytmX5ozlR-25" value="" style="endArrow=open;endSize=12;dashed=1;html=1;exitX=1;exitY=0.5;exitDx=0;exitDy=0;entryX=0;entryY=0.5;entryDx=0;entryDy=0;" parent="wGvr0MLR_YLytmX5ozlR-1" source="wGvr0MLR_YLytmX5ozlR-19" target="wGvr0MLR_YLytmX5ozlR-23" edge="1">
                    <mxGeometry width="160" relative="1" as="geometry">
                        <mxPoint x="440" y="385" as="sourcePoint"/>
                        <mxPoint x="530" y="385" as="targetPoint"/>
                    </mxGeometry>
                </mxCell>
                <mxCell id="wGvr0MLR_YLytmX5ozlR-26" value="获取生成后的配置&#10;文件包" style="ellipse;" parent="wGvr0MLR_YLytmX5ozlR-1" vertex="1">
                    <mxGeometry x="510" y="550" width="120" height="50" as="geometry"/>
                </mxCell>
                <mxCell id="wGvr0MLR_YLytmX5ozlR-27" value="获取生成后的&#10;部署信息" style="ellipse;" parent="wGvr0MLR_YLytmX5ozlR-1" vertex="1">
                    <mxGeometry x="510" y="620" width="120" height="50" as="geometry"/>
                </mxCell>
                <mxCell id="wGvr0MLR_YLytmX5ozlR-28" value="" style="endArrow=open;endSize=12;dashed=1;html=1;exitX=1;exitY=0.5;exitDx=0;exitDy=0;entryX=0;entryY=0.5;entryDx=0;entryDy=0;" parent="wGvr0MLR_YLytmX5ozlR-1" source="wGvr0MLR_YLytmX5ozlR-19" target="wGvr0MLR_YLytmX5ozlR-26" edge="1">
                    <mxGeometry width="160" relative="1" as="geometry">
                        <mxPoint x="465" y="515" as="sourcePoint"/>
                        <mxPoint x="520" y="445" as="targetPoint"/>
                    </mxGeometry>
                </mxCell>
                <mxCell id="wGvr0MLR_YLytmX5ozlR-29" value="" style="endArrow=open;endSize=12;dashed=1;html=1;exitX=1;exitY=0.5;exitDx=0;exitDy=0;entryX=0;entryY=0.5;entryDx=0;entryDy=0;" parent="wGvr0MLR_YLytmX5ozlR-1" source="wGvr0MLR_YLytmX5ozlR-19" target="wGvr0MLR_YLytmX5ozlR-27" edge="1">
                    <mxGeometry width="160" relative="1" as="geometry">
                        <mxPoint x="465" y="515" as="sourcePoint"/>
                        <mxPoint x="520" y="375" as="targetPoint"/>
                    </mxGeometry>
                </mxCell>
                <mxCell id="wGvr0MLR_YLytmX5ozlR-30" value="启停配置中心" style="ellipse;" parent="wGvr0MLR_YLytmX5ozlR-1" vertex="1">
                    <mxGeometry x="335" y="940" width="120" height="50" as="geometry"/>
                </mxCell>
                <mxCell id="wGvr0MLR_YLytmX5ozlR-40" value="修改" style="ellipse;" parent="wGvr0MLR_YLytmX5ozlR-1" vertex="1">
                    <mxGeometry x="335" y="720" width="120" height="50" as="geometry"/>
                </mxCell>
                <mxCell id="wGvr0MLR_YLytmX5ozlR-43" value="修改部署信息" style="ellipse;" parent="wGvr0MLR_YLytmX5ozlR-1" vertex="1">
                    <mxGeometry x="510" y="690" width="120" height="50" as="geometry"/>
                </mxCell>
                <mxCell id="wGvr0MLR_YLytmX5ozlR-44" value="修改配置信息" style="ellipse;" parent="wGvr0MLR_YLytmX5ozlR-1" vertex="1">
                    <mxGeometry x="510" y="760" width="120" height="50" as="geometry"/>
                </mxCell>
                <mxCell id="wGvr0MLR_YLytmX5ozlR-45" value="" style="endArrow=open;endSize=12;dashed=1;html=1;exitX=1;exitY=0.5;exitDx=0;exitDy=0;entryX=0;entryY=0.5;entryDx=0;entryDy=0;" parent="wGvr0MLR_YLytmX5ozlR-1" source="wGvr0MLR_YLytmX5ozlR-40" target="wGvr0MLR_YLytmX5ozlR-43" edge="1">
                    <mxGeometry width="160" relative="1" as="geometry">
                        <mxPoint x="430" y="725" as="sourcePoint"/>
                        <mxPoint x="520" y="725" as="targetPoint"/>
                    </mxGeometry>
                </mxCell>
                <mxCell id="wGvr0MLR_YLytmX5ozlR-46" value="" style="endArrow=open;endSize=12;dashed=1;html=1;exitX=1;exitY=0.5;exitDx=0;exitDy=0;entryX=0;entryY=0.5;entryDx=0;entryDy=0;" parent="wGvr0MLR_YLytmX5ozlR-1" source="wGvr0MLR_YLytmX5ozlR-40" target="wGvr0MLR_YLytmX5ozlR-44" edge="1">
                    <mxGeometry width="160" relative="1" as="geometry">
                        <mxPoint x="440" y="735" as="sourcePoint"/>
                        <mxPoint x="530" y="735" as="targetPoint"/>
                    </mxGeometry>
                </mxCell>
                <mxCell id="wGvr0MLR_YLytmX5ozlR-47" value="删除" style="ellipse;" parent="wGvr0MLR_YLytmX5ozlR-1" vertex="1">
                    <mxGeometry x="335" y="830" width="120" height="50" as="geometry"/>
                </mxCell>
                <mxCell id="wGvr0MLR_YLytmX5ozlR-48" value="删除用户名下&#10;缓存的修改" style="ellipse;" parent="wGvr0MLR_YLytmX5ozlR-1" vertex="1">
                    <mxGeometry x="510" y="830" width="120" height="50" as="geometry"/>
                </mxCell>
                <mxCell id="wGvr0MLR_YLytmX5ozlR-50" value="" style="endArrow=open;endSize=12;dashed=1;html=1;exitX=1;exitY=0.5;exitDx=0;exitDy=0;entryX=0;entryY=0.5;entryDx=0;entryDy=0;" parent="wGvr0MLR_YLytmX5ozlR-1" source="wGvr0MLR_YLytmX5ozlR-47" target="wGvr0MLR_YLytmX5ozlR-48" edge="1">
                    <mxGeometry width="160" relative="1" as="geometry">
                        <mxPoint x="430" y="865" as="sourcePoint"/>
                        <mxPoint x="520" y="865" as="targetPoint"/>
                    </mxGeometry>
                </mxCell>
            </root>
        </mxGraphModel>
    </diagram>
    <diagram id="X0l_SuOXDXy5-S-UmQog" name="交互方1.2">
        <mxGraphModel dx="1761" dy="553" grid="1" gridSize="10" guides="1" tooltips="1" connect="1" arrows="1" fold="1" page="1" pageScale="1" pageWidth="827" pageHeight="1169" math="0" shadow="0">
            <root>
                <mxCell id="6_8tLc9dfaB4PCK8XyHs-0"/>
                <mxCell id="6_8tLc9dfaB4PCK8XyHs-1" parent="6_8tLc9dfaB4PCK8XyHs-0"/>
                <mxCell id="6_8tLc9dfaB4PCK8XyHs-27" value="" style="rounded=0;whiteSpace=wrap;html=1;" parent="6_8tLc9dfaB4PCK8XyHs-1" vertex="1">
                    <mxGeometry x="540" y="130" width="200" height="390" as="geometry"/>
                </mxCell>
                <mxCell id="6_8tLc9dfaB4PCK8XyHs-24" value="" style="rounded=0;whiteSpace=wrap;html=1;" parent="6_8tLc9dfaB4PCK8XyHs-1" vertex="1">
                    <mxGeometry x="290" y="130" width="200" height="390" as="geometry"/>
                </mxCell>
                <mxCell id="6_8tLc9dfaB4PCK8XyHs-2" value="" style="rounded=0;whiteSpace=wrap;html=1;" parent="6_8tLc9dfaB4PCK8XyHs-1" vertex="1">
                    <mxGeometry x="-170" y="250" width="170" height="150" as="geometry"/>
                </mxCell>
                <mxCell id="6_8tLc9dfaB4PCK8XyHs-4" value="" style="rounded=0;whiteSpace=wrap;html=1;" parent="6_8tLc9dfaB4PCK8XyHs-1" vertex="1">
                    <mxGeometry x="40" y="130" width="200" height="390" as="geometry"/>
                </mxCell>
                <mxCell id="6_8tLc9dfaB4PCK8XyHs-5" value="配置服务" style="rounded=1;" parent="6_8tLc9dfaB4PCK8XyHs-1" vertex="1">
                    <mxGeometry x="80" y="310" width="120" height="60" as="geometry"/>
                </mxCell>
                <mxCell id="6_8tLc9dfaB4PCK8XyHs-6" value="clientv3(grpc/http)" style="endArrow=classic;html=1;startArrow=classic;startFill=1;" parent="6_8tLc9dfaB4PCK8XyHs-1" source="6_8tLc9dfaB4PCK8XyHs-5" target="6_8tLc9dfaB4PCK8XyHs-7" edge="1">
                    <mxGeometry width="50" height="50" relative="1" as="geometry">
                        <mxPoint x="127" y="240" as="sourcePoint"/>
                        <mxPoint x="297" y="415" as="targetPoint"/>
                    </mxGeometry>
                </mxCell>
                <mxCell id="6_8tLc9dfaB4PCK8XyHs-7" value="etcd" style="shape=cylinder3;boundedLbl=1;backgroundOutline=1;size=15;" parent="6_8tLc9dfaB4PCK8XyHs-1" vertex="1">
                    <mxGeometry x="110" y="410" width="60" height="80" as="geometry"/>
                </mxCell>
                <mxCell id="6_8tLc9dfaB4PCK8XyHs-8" value="grpc" style="endArrow=classic;html=1;horizontal=1;startArrow=none;startFill=1;" parent="6_8tLc9dfaB4PCK8XyHs-1" source="6_8tLc9dfaB4PCK8XyHs-15" edge="1">
                    <mxGeometry width="50" height="50" relative="1" as="geometry">
                        <mxPoint x="155.5" y="230" as="sourcePoint"/>
                        <mxPoint x="110" y="250" as="targetPoint"/>
                    </mxGeometry>
                </mxCell>
                <mxCell id="6_8tLc9dfaB4PCK8XyHs-9" value="配置中心服务端" style="text;strokeColor=none;fillColor=none;align=center;verticalAlign=middle;rounded=0;" parent="6_8tLc9dfaB4PCK8XyHs-1" vertex="1">
                    <mxGeometry x="91" y="150" width="98" height="20" as="geometry"/>
                </mxCell>
                <mxCell id="6_8tLc9dfaB4PCK8XyHs-10" value="服务端命令行工具&#10;proxima" style="rounded=1;" parent="6_8tLc9dfaB4PCK8XyHs-1" vertex="1">
                    <mxGeometry x="330" y="410" width="120" height="60" as="geometry"/>
                </mxCell>
                <mxCell id="6_8tLc9dfaB4PCK8XyHs-11" value="grpc" style="endArrow=classic;horizontal=1;startArrow=classic;startFill=1;entryX=0;entryY=0.5;entryDx=0;entryDy=0;exitX=1;exitY=0.5;exitDx=0;exitDy=0;" parent="6_8tLc9dfaB4PCK8XyHs-1" source="6_8tLc9dfaB4PCK8XyHs-14" target="6_8tLc9dfaB4PCK8XyHs-5" edge="1">
                    <mxGeometry width="50" height="50" relative="1" as="geometry">
                        <mxPoint x="540" y="380" as="sourcePoint"/>
                        <mxPoint x="435.5" y="300" as="targetPoint"/>
                    </mxGeometry>
                </mxCell>
                <mxCell id="6_8tLc9dfaB4PCK8XyHs-13" value="配置端（网页端）" style="rounded=1;" parent="6_8tLc9dfaB4PCK8XyHs-1" vertex="1">
                    <mxGeometry x="330" y="210" width="120" height="60" as="geometry"/>
                </mxCell>
                <mxCell id="6_8tLc9dfaB4PCK8XyHs-14" value="操控中心" style="rounded=1;" parent="6_8tLc9dfaB4PCK8XyHs-1" vertex="1">
                    <mxGeometry x="-145" y="310" width="120" height="60" as="geometry"/>
                </mxCell>
                <mxCell id="6_8tLc9dfaB4PCK8XyHs-15" value="envoy" style="rounded=1;" parent="6_8tLc9dfaB4PCK8XyHs-1" vertex="1">
                    <mxGeometry x="80" y="210" width="120" height="60" as="geometry"/>
                </mxCell>
                <mxCell id="6_8tLc9dfaB4PCK8XyHs-16" value="http" style="endArrow=classic;horizontal=1;startArrow=classic;startFill=1;entryX=1;entryY=0.5;entryDx=0;entryDy=0;exitX=0;exitY=0.5;exitDx=0;exitDy=0;" parent="6_8tLc9dfaB4PCK8XyHs-1" source="6_8tLc9dfaB4PCK8XyHs-13" target="6_8tLc9dfaB4PCK8XyHs-15" edge="1">
                    <mxGeometry width="50" height="50" relative="1" as="geometry">
                        <mxPoint x="445.7142857142858" y="190" as="sourcePoint"/>
                        <mxPoint x="440" y="230" as="targetPoint"/>
                    </mxGeometry>
                </mxCell>
                <mxCell id="6_8tLc9dfaB4PCK8XyHs-17" value="grpc" style="endArrow=classic;html=1;horizontal=1;startArrow=classic;startFill=1;entryX=0.5;entryY=1;entryDx=0;entryDy=0;" parent="6_8tLc9dfaB4PCK8XyHs-1" target="6_8tLc9dfaB4PCK8XyHs-15" edge="1">
                    <mxGeometry width="50" height="50" relative="1" as="geometry">
                        <mxPoint x="140" y="310" as="sourcePoint"/>
                        <mxPoint y="180" as="targetPoint"/>
                    </mxGeometry>
                </mxCell>
                <mxCell id="6_8tLc9dfaB4PCK8XyHs-18" value="客户端命令行工具&#10;proxctl" style="rounded=1;" parent="6_8tLc9dfaB4PCK8XyHs-1" vertex="1">
                    <mxGeometry x="330" y="310" width="120" height="60" as="geometry"/>
                </mxCell>
                <mxCell id="6_8tLc9dfaB4PCK8XyHs-19" value="grpc" style="endArrow=classic;horizontal=1;startArrow=classic;startFill=1;entryX=1;entryY=0.5;entryDx=0;entryDy=0;exitX=0;exitY=0.5;exitDx=0;exitDy=0;" parent="6_8tLc9dfaB4PCK8XyHs-1" source="6_8tLc9dfaB4PCK8XyHs-18" target="6_8tLc9dfaB4PCK8XyHs-5" edge="1">
                    <mxGeometry width="50" height="50" relative="1" as="geometry">
                        <mxPoint x="590" y="420" as="sourcePoint"/>
                        <mxPoint x="490" y="360" as="targetPoint"/>
                    </mxGeometry>
                </mxCell>
                <mxCell id="6_8tLc9dfaB4PCK8XyHs-20" value="手动部署" style="text;strokeColor=none;fillColor=none;align=center;verticalAlign=middle;rounded=0;" parent="6_8tLc9dfaB4PCK8XyHs-1" vertex="1">
                    <mxGeometry x="595" y="150" width="90" height="20" as="geometry"/>
                </mxCell>
                <mxCell id="6_8tLc9dfaB4PCK8XyHs-21" value="分布式自动化系统" style="text;strokeColor=none;fillColor=none;align=center;verticalAlign=middle;rounded=0;" parent="6_8tLc9dfaB4PCK8XyHs-1" vertex="1">
                    <mxGeometry x="-140.75" y="270" width="111.5" height="20" as="geometry"/>
                </mxCell>
                <mxCell id="6_8tLc9dfaB4PCK8XyHs-25" value="配置中心前端" style="text;strokeColor=none;fillColor=none;align=center;verticalAlign=middle;rounded=0;" parent="6_8tLc9dfaB4PCK8XyHs-1" vertex="1">
                    <mxGeometry x="341" y="150" width="98" height="20" as="geometry"/>
                </mxCell>
                <mxCell id="6_8tLc9dfaB4PCK8XyHs-26" value="grpc" style="endArrow=classic;horizontal=1;startArrow=classic;startFill=1;entryX=1;entryY=0.5;entryDx=0;entryDy=0;exitX=0;exitY=0.5;exitDx=0;exitDy=0;" parent="6_8tLc9dfaB4PCK8XyHs-1" source="6_8tLc9dfaB4PCK8XyHs-10" target="6_8tLc9dfaB4PCK8XyHs-5" edge="1">
                    <mxGeometry width="50" height="50" relative="1" as="geometry">
                        <mxPoint x="340" y="350" as="sourcePoint"/>
                        <mxPoint x="210" y="350" as="targetPoint"/>
                    </mxGeometry>
                </mxCell>
                <mxCell id="6_8tLc9dfaB4PCK8XyHs-28" value="应用开发人员" style="rounded=1;" parent="6_8tLc9dfaB4PCK8XyHs-1" vertex="1">
                    <mxGeometry x="580" y="190" width="120" height="50" as="geometry"/>
                </mxCell>
                <mxCell id="6_8tLc9dfaB4PCK8XyHs-29" value="应用部署人员" style="rounded=1;" parent="6_8tLc9dfaB4PCK8XyHs-1" vertex="1">
                    <mxGeometry x="580" y="270" width="120" height="50" as="geometry"/>
                </mxCell>
                <mxCell id="6_8tLc9dfaB4PCK8XyHs-30" value="基础设施维护人员" style="rounded=1;" parent="6_8tLc9dfaB4PCK8XyHs-1" vertex="1">
                    <mxGeometry x="580" y="350" width="120" height="50" as="geometry"/>
                </mxCell>
                <mxCell id="6_8tLc9dfaB4PCK8XyHs-31" value="" style="endArrow=classic;html=1;horizontal=1;startArrow=classic;startFill=1;entryX=1;entryY=0.5;entryDx=0;entryDy=0;exitX=0;exitY=0.5;exitDx=0;exitDy=0;" parent="6_8tLc9dfaB4PCK8XyHs-1" source="6_8tLc9dfaB4PCK8XyHs-28" target="6_8tLc9dfaB4PCK8XyHs-13" edge="1">
                    <mxGeometry width="50" height="50" relative="1" as="geometry">
                        <mxPoint x="520" y="280" as="sourcePoint"/>
                        <mxPoint x="460" y="239.5" as="targetPoint"/>
                    </mxGeometry>
                </mxCell>
                <mxCell id="6_8tLc9dfaB4PCK8XyHs-32" value="" style="endArrow=classic;html=1;horizontal=1;startArrow=classic;startFill=1;entryX=1;entryY=0.5;entryDx=0;entryDy=0;exitX=0;exitY=0.5;exitDx=0;exitDy=0;" parent="6_8tLc9dfaB4PCK8XyHs-1" source="6_8tLc9dfaB4PCK8XyHs-29" target="6_8tLc9dfaB4PCK8XyHs-18" edge="1">
                    <mxGeometry width="50" height="50" relative="1" as="geometry">
                        <mxPoint x="590" y="250" as="sourcePoint"/>
                        <mxPoint x="460" y="250" as="targetPoint"/>
                    </mxGeometry>
                </mxCell>
                <mxCell id="6_8tLc9dfaB4PCK8XyHs-33" value="" style="endArrow=classic;html=1;horizontal=1;startArrow=classic;startFill=1;entryX=1;entryY=0.5;entryDx=0;entryDy=0;exitX=0;exitY=0.5;exitDx=0;exitDy=0;" parent="6_8tLc9dfaB4PCK8XyHs-1" source="6_8tLc9dfaB4PCK8XyHs-29" target="6_8tLc9dfaB4PCK8XyHs-13" edge="1">
                    <mxGeometry width="50" height="50" relative="1" as="geometry">
                        <mxPoint x="600" y="260" as="sourcePoint"/>
                        <mxPoint x="470" y="260" as="targetPoint"/>
                    </mxGeometry>
                </mxCell>
                <mxCell id="6_8tLc9dfaB4PCK8XyHs-34" value="" style="endArrow=classic;html=1;horizontal=1;startArrow=classic;startFill=1;entryX=1;entryY=0.5;entryDx=0;entryDy=0;exitX=0;exitY=0.5;exitDx=0;exitDy=0;" parent="6_8tLc9dfaB4PCK8XyHs-1" source="6_8tLc9dfaB4PCK8XyHs-28" target="6_8tLc9dfaB4PCK8XyHs-18" edge="1">
                    <mxGeometry width="50" height="50" relative="1" as="geometry">
                        <mxPoint x="610" y="270" as="sourcePoint"/>
                        <mxPoint x="480" y="270" as="targetPoint"/>
                    </mxGeometry>
                </mxCell>
                <mxCell id="6_8tLc9dfaB4PCK8XyHs-35" value="" style="endArrow=classic;html=1;horizontal=1;startArrow=classic;startFill=1;entryX=1;entryY=0.5;entryDx=0;entryDy=0;exitX=0;exitY=0.5;exitDx=0;exitDy=0;" parent="6_8tLc9dfaB4PCK8XyHs-1" source="6_8tLc9dfaB4PCK8XyHs-30" target="6_8tLc9dfaB4PCK8XyHs-13" edge="1">
                    <mxGeometry width="50" height="50" relative="1" as="geometry">
                        <mxPoint x="620" y="280" as="sourcePoint"/>
                        <mxPoint x="490" y="280" as="targetPoint"/>
                    </mxGeometry>
                </mxCell>
                <mxCell id="6_8tLc9dfaB4PCK8XyHs-36" value="" style="endArrow=classic;html=1;horizontal=1;startArrow=classic;startFill=1;entryX=1;entryY=0.5;entryDx=0;entryDy=0;exitX=0;exitY=0.5;exitDx=0;exitDy=0;" parent="6_8tLc9dfaB4PCK8XyHs-1" source="6_8tLc9dfaB4PCK8XyHs-30" target="6_8tLc9dfaB4PCK8XyHs-18" edge="1">
                    <mxGeometry width="50" height="50" relative="1" as="geometry">
                        <mxPoint x="630" y="290" as="sourcePoint"/>
                        <mxPoint x="500" y="290" as="targetPoint"/>
                    </mxGeometry>
                </mxCell>
                <mxCell id="6_8tLc9dfaB4PCK8XyHs-37" value="配置中心运维人员" style="rounded=1;" parent="6_8tLc9dfaB4PCK8XyHs-1" vertex="1">
                    <mxGeometry x="580" y="430" width="120" height="50" as="geometry"/>
                </mxCell>
                <mxCell id="6_8tLc9dfaB4PCK8XyHs-38" value="" style="endArrow=classic;html=1;horizontal=1;startArrow=classic;startFill=1;entryX=1;entryY=0.5;entryDx=0;entryDy=0;exitX=0;exitY=0.5;exitDx=0;exitDy=0;" parent="6_8tLc9dfaB4PCK8XyHs-1" source="6_8tLc9dfaB4PCK8XyHs-37" target="6_8tLc9dfaB4PCK8XyHs-10" edge="1">
                    <mxGeometry width="50" height="50" relative="1" as="geometry">
                        <mxPoint x="590" y="385" as="sourcePoint"/>
                        <mxPoint x="460" y="350" as="targetPoint"/>
                    </mxGeometry>
                </mxCell>
            </root>
        </mxGraphModel>
    </diagram>
    <diagram id="5ghxl-pbiyIqiedONPmC" name="交互方">
        <mxGraphModel dx="804" dy="641" grid="1" gridSize="10" guides="1" tooltips="1" connect="1" arrows="1" fold="1" page="1" pageScale="1" pageWidth="827" pageHeight="1169" math="0" shadow="0">
            <root>
                <mxCell id="0"/>
                <mxCell id="1" parent="0"/>
                <mxCell id="17" value="" style="rounded=0;whiteSpace=wrap;html=1;" parent="1" vertex="1">
                    <mxGeometry x="180" y="60" width="330" height="470" as="geometry"/>
                </mxCell>
                <mxCell id="18" value="配置服务" style="rounded=1;whiteSpace=wrap;html=1;" parent="1" vertex="1">
                    <mxGeometry x="210" y="320" width="270" height="60" as="geometry"/>
                </mxCell>
                <mxCell id="19" value="clientv3(grpc/http)" style="endArrow=classic;html=1;startArrow=classic;startFill=1;" parent="1" source="18" target="20" edge="1">
                    <mxGeometry width="50" height="50" relative="1" as="geometry">
                        <mxPoint x="397" y="250" as="sourcePoint"/>
                        <mxPoint x="567" y="425" as="targetPoint"/>
                    </mxGeometry>
                </mxCell>
                <mxCell id="20" value="&lt;span style=&quot;color: rgb(0 , 0 , 0) ; font-family: &amp;#34;helvetica&amp;#34; ; font-size: 12px ; font-style: normal ; font-weight: 400 ; letter-spacing: normal ; text-align: center ; text-indent: 0px ; text-transform: none ; word-spacing: 0px ; background-color: rgb(248 , 249 , 250) ; display: inline ; float: none&quot;&gt;etcd&lt;/span&gt;" style="shape=cylinder3;whiteSpace=wrap;html=1;boundedLbl=1;backgroundOutline=1;size=15;" parent="1" vertex="1">
                    <mxGeometry x="315" y="440" width="60" height="80" as="geometry"/>
                </mxCell>
                <mxCell id="21" value="grpc" style="endArrow=classic;html=1;horizontal=1;startArrow=none;startFill=1;" parent="1" source="28" edge="1">
                    <mxGeometry width="50" height="50" relative="1" as="geometry">
                        <mxPoint x="425.5" y="240" as="sourcePoint"/>
                        <mxPoint x="380" y="260" as="targetPoint"/>
                    </mxGeometry>
                </mxCell>
                <mxCell id="22" value="&lt;font style=&quot;font-size: 13px&quot;&gt;配置中心&lt;/font&gt;" style="text;html=1;strokeColor=none;fillColor=none;align=center;verticalAlign=middle;whiteSpace=wrap;rounded=0;" parent="1" vertex="1">
                    <mxGeometry x="317" y="80" width="56" height="20" as="geometry"/>
                </mxCell>
                <mxCell id="23" value="服务端命令行工具&lt;br&gt;cfgsrv" style="rounded=1;whiteSpace=wrap;html=1;" parent="1" vertex="1">
                    <mxGeometry x="210" y="120" width="130" height="60" as="geometry"/>
                </mxCell>
                <mxCell id="24" value="grpc" style="endArrow=classic;html=1;horizontal=1;startArrow=classic;startFill=1;entryX=1;entryY=0.5;entryDx=0;entryDy=0;exitX=0;exitY=0.5;exitDx=0;exitDy=0;" parent="1" source="27" target="18" edge="1">
                    <mxGeometry width="50" height="50" relative="1" as="geometry">
                        <mxPoint x="540" y="380" as="sourcePoint"/>
                        <mxPoint x="435.5" y="300" as="targetPoint"/>
                    </mxGeometry>
                </mxCell>
                <mxCell id="25" value="" style="endArrow=classic;html=1;horizontal=1;startArrow=classic;startFill=1;entryX=0.5;entryY=1;entryDx=0;entryDy=0;" parent="1" target="23" edge="1">
                    <mxGeometry width="50" height="50" relative="1" as="geometry">
                        <mxPoint x="275" y="320" as="sourcePoint"/>
                        <mxPoint x="496" y="330" as="targetPoint"/>
                    </mxGeometry>
                </mxCell>
                <mxCell id="26" value="配置端（网页端）" style="rounded=1;whiteSpace=wrap;html=1;" parent="1" vertex="1">
                    <mxGeometry x="350" y="120" width="120" height="60" as="geometry"/>
                </mxCell>
                <mxCell id="27" value="操控中心" style="rounded=1;whiteSpace=wrap;html=1;" parent="1" vertex="1">
                    <mxGeometry x="580" y="380" width="120" height="60" as="geometry"/>
                </mxCell>
                <mxCell id="28" value="envoy" style="rounded=1;whiteSpace=wrap;html=1;" parent="1" vertex="1">
                    <mxGeometry x="350" y="220" width="120" height="60" as="geometry"/>
                </mxCell>
                <mxCell id="29" value="http" style="endArrow=classic;html=1;horizontal=1;startArrow=classic;startFill=1;entryX=0.5;entryY=0;entryDx=0;entryDy=0;exitX=0.5;exitY=1;exitDx=0;exitDy=0;" parent="1" source="26" target="28" edge="1">
                    <mxGeometry width="50" height="50" relative="1" as="geometry">
                        <mxPoint x="605.7142857142858" y="190" as="sourcePoint"/>
                        <mxPoint x="600" y="230" as="targetPoint"/>
                    </mxGeometry>
                </mxCell>
                <mxCell id="30" value="grpc" style="endArrow=classic;html=1;horizontal=1;startArrow=classic;startFill=1;entryX=0.5;entryY=1;entryDx=0;entryDy=0;" parent="1" target="28" edge="1">
                    <mxGeometry width="50" height="50" relative="1" as="geometry">
                        <mxPoint x="410" y="320" as="sourcePoint"/>
                        <mxPoint x="270" y="190" as="targetPoint"/>
                    </mxGeometry>
                </mxCell>
                <mxCell id="31" value="客户端命令行工具&lt;br&gt;cfgtool" style="rounded=1;whiteSpace=wrap;html=1;" parent="1" vertex="1">
                    <mxGeometry x="580" y="260" width="120" height="60" as="geometry"/>
                </mxCell>
                <mxCell id="32" value="grpc" style="endArrow=classic;html=1;horizontal=1;startArrow=classic;startFill=1;entryX=1;entryY=0.5;entryDx=0;entryDy=0;exitX=0;exitY=0.5;exitDx=0;exitDy=0;" parent="1" source="31" target="18" edge="1">
                    <mxGeometry width="50" height="50" relative="1" as="geometry">
                        <mxPoint x="590" y="420" as="sourcePoint"/>
                        <mxPoint x="490" y="360" as="targetPoint"/>
                    </mxGeometry>
                </mxCell>
            </root>
        </mxGraphModel>
    </diagram>
    <diagram id="tY_HG1pgy65-itY2Arw2" name="信息层级">
        <mxGraphModel dx="902" dy="849" grid="1" gridSize="10" guides="1" tooltips="1" connect="1" arrows="1" fold="1" page="1" pageScale="1" pageWidth="827" pageHeight="1169" math="0" shadow="0">
            <root>
                <mxCell id="NY3unQKNjPxRCg-vFaLY-0"/>
                <mxCell id="NY3unQKNjPxRCg-vFaLY-1" parent="NY3unQKNjPxRCg-vFaLY-0"/>
                <mxCell id="NY3unQKNjPxRCg-vFaLY-2" value="" style="html=1;fillColor=#fff2cc;strokeColor=#d6b656;" parent="NY3unQKNjPxRCg-vFaLY-1" vertex="1">
                    <mxGeometry x="169" y="150" width="490" height="280" as="geometry"/>
                </mxCell>
                <mxCell id="NY3unQKNjPxRCg-vFaLY-3" value="" style="html=1;fillColor=#d5e8d4;strokeColor=#82b366;" parent="NY3unQKNjPxRCg-vFaLY-1" vertex="1">
                    <mxGeometry x="179" y="200" width="320" height="220" as="geometry"/>
                </mxCell>
                <mxCell id="NY3unQKNjPxRCg-vFaLY-4" value="" style="html=1;fillColor=#dae8fc;strokeColor=#6c8ebf;" parent="NY3unQKNjPxRCg-vFaLY-1" vertex="1">
                    <mxGeometry x="189" y="250" width="100" height="160" as="geometry"/>
                </mxCell>
                <mxCell id="NY3unQKNjPxRCg-vFaLY-5" value="" style="html=1;fillColor=#ffe6cc;strokeColor=#d79b00;" parent="NY3unQKNjPxRCg-vFaLY-1" vertex="1">
                    <mxGeometry x="199" y="276" width="80" height="51.5" as="geometry"/>
                </mxCell>
                <mxCell id="NY3unQKNjPxRCg-vFaLY-6" value="" style="html=1;fillColor=#ffe6cc;strokeColor=#d79b00;" parent="NY3unQKNjPxRCg-vFaLY-1" vertex="1">
                    <mxGeometry x="199" y="340" width="80" height="50" as="geometry"/>
                </mxCell>
                <mxCell id="NY3unQKNjPxRCg-vFaLY-7" value="..." style="text;align=center;fontStyle=1;verticalAlign=middle;spacingLeft=3;spacingRight=3;strokeColor=none;rotatable=0;points=[[0,0.5],[1,0.5]];portConstraint=eastwest;" parent="NY3unQKNjPxRCg-vFaLY-1" vertex="1">
                    <mxGeometry x="199" y="390" width="80" height="20" as="geometry"/>
                </mxCell>
                <mxCell id="NY3unQKNjPxRCg-vFaLY-8" value="00环境" style="text;align=center;fontStyle=1;verticalAlign=middle;spacingLeft=3;spacingRight=3;strokeColor=none;rotatable=0;points=[[0,0.5],[1,0.5]];portConstraint=eastwest;" parent="NY3unQKNjPxRCg-vFaLY-1" vertex="1">
                    <mxGeometry x="199" y="250" width="80" height="26" as="geometry"/>
                </mxCell>
                <mxCell id="NY3unQKNjPxRCg-vFaLY-9" value="配置数据(版本层面)" style="text;align=center;fontStyle=1;verticalAlign=middle;spacingLeft=3;spacingRight=3;strokeColor=none;rotatable=0;points=[[0,0.5],[1,0.5]];portConstraint=eastwest;" parent="NY3unQKNjPxRCg-vFaLY-1" vertex="1">
                    <mxGeometry x="304" y="210" width="80" height="26" as="geometry"/>
                </mxCell>
                <mxCell id="NY3unQKNjPxRCg-vFaLY-10" value="" style="html=1;fillColor=#dae8fc;strokeColor=#6c8ebf;" parent="NY3unQKNjPxRCg-vFaLY-1" vertex="1">
                    <mxGeometry x="299" y="250" width="90" height="40" as="geometry"/>
                </mxCell>
                <mxCell id="NY3unQKNjPxRCg-vFaLY-11" value="88环境" style="text;align=center;fontStyle=1;verticalAlign=middle;spacingLeft=3;spacingRight=3;strokeColor=none;rotatable=0;points=[[0,0.5],[1,0.5]];portConstraint=eastwest;" parent="NY3unQKNjPxRCg-vFaLY-1" vertex="1">
                    <mxGeometry x="314" y="257" width="60" height="26" as="geometry"/>
                </mxCell>
                <mxCell id="NY3unQKNjPxRCg-vFaLY-12" value="" style="html=1;fillColor=#dae8fc;strokeColor=#6c8ebf;" parent="NY3unQKNjPxRCg-vFaLY-1" vertex="1">
                    <mxGeometry x="299" y="308.5" width="90" height="40" as="geometry"/>
                </mxCell>
                <mxCell id="NY3unQKNjPxRCg-vFaLY-13" value="" style="html=1;fillColor=#dae8fc;strokeColor=#6c8ebf;" parent="NY3unQKNjPxRCg-vFaLY-1" vertex="1">
                    <mxGeometry x="299" y="370" width="90" height="40" as="geometry"/>
                </mxCell>
                <mxCell id="NY3unQKNjPxRCg-vFaLY-14" value="xx环境" style="text;align=center;fontStyle=1;verticalAlign=middle;spacingLeft=3;spacingRight=3;strokeColor=none;rotatable=0;points=[[0,0.5],[1,0.5]];portConstraint=eastwest;" parent="NY3unQKNjPxRCg-vFaLY-1" vertex="1">
                    <mxGeometry x="314" y="318.5" width="60" height="23" as="geometry"/>
                </mxCell>
                <mxCell id="NY3unQKNjPxRCg-vFaLY-15" value="..." style="text;align=center;fontStyle=1;verticalAlign=middle;spacingLeft=3;spacingRight=3;strokeColor=none;rotatable=0;points=[[0,0.5],[1,0.5]];portConstraint=eastwest;" parent="NY3unQKNjPxRCg-vFaLY-1" vertex="1">
                    <mxGeometry x="309" y="378.5" width="70" height="23" as="geometry"/>
                </mxCell>
                <mxCell id="NY3unQKNjPxRCg-vFaLY-16" value="配置中心" style="text;align=center;fontStyle=1;verticalAlign=middle;spacingLeft=3;spacingRight=3;strokeColor=none;rotatable=0;points=[[0,0.5],[1,0.5]];portConstraint=eastwest;" parent="NY3unQKNjPxRCg-vFaLY-1" vertex="1">
                    <mxGeometry x="374" y="160" width="80" height="26" as="geometry"/>
                </mxCell>
                <mxCell id="NY3unQKNjPxRCg-vFaLY-17" value="历史版本1" style="html=1;fillColor=#d5e8d4;strokeColor=#82b366;" parent="NY3unQKNjPxRCg-vFaLY-1" vertex="1">
                    <mxGeometry x="519" y="200" width="110" height="50" as="geometry"/>
                </mxCell>
                <mxCell id="NY3unQKNjPxRCg-vFaLY-18" value="历史版本2" style="html=1;fillColor=#d5e8d4;strokeColor=#82b366;" parent="NY3unQKNjPxRCg-vFaLY-1" vertex="1">
                    <mxGeometry x="519" y="285" width="110" height="50" as="geometry"/>
                </mxCell>
                <mxCell id="NY3unQKNjPxRCg-vFaLY-19" value="..." style="text;align=center;fontStyle=1;verticalAlign=middle;spacingLeft=3;spacingRight=3;strokeColor=none;rotatable=0;points=[[0,0.5],[1,0.5]];portConstraint=eastwest;" parent="NY3unQKNjPxRCg-vFaLY-1" vertex="1">
                    <mxGeometry x="534" y="370" width="80" height="26" as="geometry"/>
                </mxCell>
                <mxCell id="NY3unQKNjPxRCg-vFaLY-20" value="" style="rounded=0;whiteSpace=wrap;html=1;fillColor=#f8cecc;strokeColor=#b85450;" parent="NY3unQKNjPxRCg-vFaLY-1" vertex="1">
                    <mxGeometry x="399" y="250" width="90" height="160" as="geometry"/>
                </mxCell>
                <mxCell id="NY3unQKNjPxRCg-vFaLY-21" value="公共信息文件" style="text;align=center;fontStyle=1;verticalAlign=middle;spacingLeft=3;spacingRight=3;strokeColor=none;rotatable=0;points=[[0,0.5],[1,0.5]];portConstraint=eastwest;" parent="NY3unQKNjPxRCg-vFaLY-1" vertex="1">
                    <mxGeometry x="394" y="250" width="110" height="26" as="geometry"/>
                </mxCell>
                <mxCell id="NY3unQKNjPxRCg-vFaLY-22" value="集群1" style="text;align=center;fontStyle=1;verticalAlign=middle;spacingLeft=3;spacingRight=3;strokeColor=none;rotatable=0;points=[[0,0.5],[1,0.5]];portConstraint=eastwest;" parent="NY3unQKNjPxRCg-vFaLY-1" vertex="1">
                    <mxGeometry x="199" y="276" width="80" height="24" as="geometry"/>
                </mxCell>
                <mxCell id="NY3unQKNjPxRCg-vFaLY-23" value="服务清单" style="text;align=center;fontStyle=0;verticalAlign=middle;spacingLeft=3;spacingRight=3;strokeColor=none;rotatable=0;points=[[0,0.5],[1,0.5]];portConstraint=eastwest;" parent="NY3unQKNjPxRCg-vFaLY-1" vertex="1">
                    <mxGeometry x="199" y="289.75" width="80" height="24" as="geometry"/>
                </mxCell>
                <mxCell id="NY3unQKNjPxRCg-vFaLY-24" value="配置模板组" style="text;align=center;fontStyle=0;verticalAlign=middle;spacingLeft=3;spacingRight=3;strokeColor=none;rotatable=0;points=[[0,0.5],[1,0.5]];portConstraint=eastwest;" parent="NY3unQKNjPxRCg-vFaLY-1" vertex="1">
                    <mxGeometry x="199" y="303.5" width="80" height="24" as="geometry"/>
                </mxCell>
                <mxCell id="NY3unQKNjPxRCg-vFaLY-25" value="集群2" style="text;align=center;fontStyle=1;verticalAlign=middle;spacingLeft=3;spacingRight=3;strokeColor=none;rotatable=0;points=[[0,0.5],[1,0.5]];portConstraint=eastwest;" parent="NY3unQKNjPxRCg-vFaLY-1" vertex="1">
                    <mxGeometry x="199" y="340" width="80" height="24" as="geometry"/>
                </mxCell>
                <mxCell id="NY3unQKNjPxRCg-vFaLY-26" value="配置模板组" style="text;align=center;fontStyle=0;verticalAlign=middle;spacingLeft=3;spacingRight=3;strokeColor=none;rotatable=0;points=[[0,0.5],[1,0.5]];portConstraint=eastwest;" parent="NY3unQKNjPxRCg-vFaLY-1" vertex="1">
                    <mxGeometry x="199" y="370" width="80" height="24" as="geometry"/>
                </mxCell>
                <mxCell id="NY3unQKNjPxRCg-vFaLY-27" value="服务清单" style="text;align=center;fontStyle=0;verticalAlign=middle;spacingLeft=3;spacingRight=3;strokeColor=none;rotatable=0;points=[[0,0.5],[1,0.5]];portConstraint=eastwest;" parent="NY3unQKNjPxRCg-vFaLY-1" vertex="1">
                    <mxGeometry x="199" y="354.5" width="80" height="24" as="geometry"/>
                </mxCell>
                <mxCell id="NY3unQKNjPxRCg-vFaLY-28" value="文件1" style="rounded=0;whiteSpace=wrap;html=1;fillColor=#f5f5f5;strokeColor=#666666;fontColor=#333333;" parent="NY3unQKNjPxRCg-vFaLY-1" vertex="1">
                    <mxGeometry x="409" y="277" width="70" height="36" as="geometry"/>
                </mxCell>
                <mxCell id="NY3unQKNjPxRCg-vFaLY-29" value="文件2" style="rounded=0;whiteSpace=wrap;html=1;fillColor=#f5f5f5;strokeColor=#666666;fontColor=#333333;" parent="NY3unQKNjPxRCg-vFaLY-1" vertex="1">
                    <mxGeometry x="409" y="327.5" width="70" height="36" as="geometry"/>
                </mxCell>
                <mxCell id="NY3unQKNjPxRCg-vFaLY-30" value="..." style="text;align=center;fontStyle=1;verticalAlign=middle;spacingLeft=3;spacingRight=3;strokeColor=none;rotatable=0;points=[[0,0.5],[1,0.5]];portConstraint=eastwest;" parent="NY3unQKNjPxRCg-vFaLY-1" vertex="1">
                    <mxGeometry x="404" y="378.5" width="80" height="20" as="geometry"/>
                </mxCell>
            </root>
        </mxGraphModel>
    </diagram>
    <diagram id="aZ1KDHrGwNsS7cA1ze4n" name="信息层级2.0">
        <mxGraphModel dx="782" dy="635" grid="1" gridSize="10" guides="1" tooltips="1" connect="1" arrows="1" fold="1" page="1" pageScale="1" pageWidth="827" pageHeight="1169" math="0" shadow="0">
            <root>
                <mxCell id="0rOHmXvBeCBObqylr4Vl-0"/>
                <mxCell id="0rOHmXvBeCBObqylr4Vl-1" parent="0rOHmXvBeCBObqylr4Vl-0"/>
                <mxCell id="W4xcReXj6tS0nnS5dRX6-0" value="" style="html=1;fillColor=#fff2cc;strokeColor=#d6b656;" parent="0rOHmXvBeCBObqylr4Vl-1" vertex="1">
                    <mxGeometry x="169" y="150" width="490" height="280" as="geometry"/>
                </mxCell>
                <mxCell id="W4xcReXj6tS0nnS5dRX6-1" value="" style="html=1;fillColor=#d5e8d4;strokeColor=#82b366;" parent="0rOHmXvBeCBObqylr4Vl-1" vertex="1">
                    <mxGeometry x="179" y="200" width="320" height="220" as="geometry"/>
                </mxCell>
                <mxCell id="W4xcReXj6tS0nnS5dRX6-2" value="" style="html=1;fillColor=#dae8fc;strokeColor=#6c8ebf;" parent="0rOHmXvBeCBObqylr4Vl-1" vertex="1">
                    <mxGeometry x="189" y="250" width="100" height="160" as="geometry"/>
                </mxCell>
                <mxCell id="W4xcReXj6tS0nnS5dRX6-3" value="" style="html=1;fillColor=#ffe6cc;strokeColor=#d79b00;" parent="0rOHmXvBeCBObqylr4Vl-1" vertex="1">
                    <mxGeometry x="199" y="276" width="80" height="51.5" as="geometry"/>
                </mxCell>
                <mxCell id="W4xcReXj6tS0nnS5dRX6-4" value="" style="html=1;fillColor=#ffe6cc;strokeColor=#d79b00;" parent="0rOHmXvBeCBObqylr4Vl-1" vertex="1">
                    <mxGeometry x="199" y="340" width="80" height="50" as="geometry"/>
                </mxCell>
                <mxCell id="W4xcReXj6tS0nnS5dRX6-5" value="..." style="text;align=center;fontStyle=1;verticalAlign=middle;spacingLeft=3;spacingRight=3;strokeColor=none;rotatable=0;points=[[0,0.5],[1,0.5]];portConstraint=eastwest;" parent="0rOHmXvBeCBObqylr4Vl-1" vertex="1">
                    <mxGeometry x="199" y="390" width="80" height="20" as="geometry"/>
                </mxCell>
                <mxCell id="W4xcReXj6tS0nnS5dRX6-6" value="配置方案1" style="text;align=center;fontStyle=1;verticalAlign=middle;spacingLeft=3;spacingRight=3;strokeColor=none;rotatable=0;points=[[0,0.5],[1,0.5]];portConstraint=eastwest;" parent="0rOHmXvBeCBObqylr4Vl-1" vertex="1">
                    <mxGeometry x="199" y="250" width="80" height="26" as="geometry"/>
                </mxCell>
                <mxCell id="W4xcReXj6tS0nnS5dRX6-7" value="配置数据(版本层面)" style="text;align=center;fontStyle=1;verticalAlign=middle;spacingLeft=3;spacingRight=3;strokeColor=none;rotatable=0;points=[[0,0.5],[1,0.5]];portConstraint=eastwest;" parent="0rOHmXvBeCBObqylr4Vl-1" vertex="1">
                    <mxGeometry x="304" y="210" width="80" height="26" as="geometry"/>
                </mxCell>
                <mxCell id="W4xcReXj6tS0nnS5dRX6-8" value="" style="html=1;fillColor=#dae8fc;strokeColor=#6c8ebf;" parent="0rOHmXvBeCBObqylr4Vl-1" vertex="1">
                    <mxGeometry x="299" y="250" width="90" height="40" as="geometry"/>
                </mxCell>
                <mxCell id="W4xcReXj6tS0nnS5dRX6-9" value="配置方案2" style="text;align=center;fontStyle=1;verticalAlign=middle;spacingLeft=3;spacingRight=3;strokeColor=none;rotatable=0;points=[[0,0.5],[1,0.5]];portConstraint=eastwest;" parent="0rOHmXvBeCBObqylr4Vl-1" vertex="1">
                    <mxGeometry x="314" y="257" width="60" height="26" as="geometry"/>
                </mxCell>
                <mxCell id="W4xcReXj6tS0nnS5dRX6-10" value="" style="html=1;fillColor=#dae8fc;strokeColor=#6c8ebf;" parent="0rOHmXvBeCBObqylr4Vl-1" vertex="1">
                    <mxGeometry x="299" y="308.5" width="90" height="40" as="geometry"/>
                </mxCell>
                <mxCell id="W4xcReXj6tS0nnS5dRX6-11" value="" style="html=1;fillColor=#dae8fc;strokeColor=#6c8ebf;" parent="0rOHmXvBeCBObqylr4Vl-1" vertex="1">
                    <mxGeometry x="299" y="370" width="90" height="40" as="geometry"/>
                </mxCell>
                <mxCell id="W4xcReXj6tS0nnS5dRX6-12" value="配置方案3" style="text;align=center;fontStyle=1;verticalAlign=middle;spacingLeft=3;spacingRight=3;strokeColor=none;rotatable=0;points=[[0,0.5],[1,0.5]];portConstraint=eastwest;" parent="0rOHmXvBeCBObqylr4Vl-1" vertex="1">
                    <mxGeometry x="314" y="318.5" width="60" height="23" as="geometry"/>
                </mxCell>
                <mxCell id="W4xcReXj6tS0nnS5dRX6-13" value="..." style="text;align=center;fontStyle=1;verticalAlign=middle;spacingLeft=3;spacingRight=3;strokeColor=none;rotatable=0;points=[[0,0.5],[1,0.5]];portConstraint=eastwest;" parent="0rOHmXvBeCBObqylr4Vl-1" vertex="1">
                    <mxGeometry x="309" y="378.5" width="70" height="23" as="geometry"/>
                </mxCell>
                <mxCell id="W4xcReXj6tS0nnS5dRX6-14" value="配置中心" style="text;align=center;fontStyle=1;verticalAlign=middle;spacingLeft=3;spacingRight=3;strokeColor=none;rotatable=0;points=[[0,0.5],[1,0.5]];portConstraint=eastwest;" parent="0rOHmXvBeCBObqylr4Vl-1" vertex="1">
                    <mxGeometry x="374" y="160" width="80" height="26" as="geometry"/>
                </mxCell>
                <mxCell id="W4xcReXj6tS0nnS5dRX6-15" value="历史版本1" style="html=1;fillColor=#d5e8d4;strokeColor=#82b366;" parent="0rOHmXvBeCBObqylr4Vl-1" vertex="1">
                    <mxGeometry x="519" y="200" width="110" height="50" as="geometry"/>
                </mxCell>
                <mxCell id="W4xcReXj6tS0nnS5dRX6-16" value="历史版本2" style="html=1;fillColor=#d5e8d4;strokeColor=#82b366;" parent="0rOHmXvBeCBObqylr4Vl-1" vertex="1">
                    <mxGeometry x="519" y="285" width="110" height="50" as="geometry"/>
                </mxCell>
                <mxCell id="W4xcReXj6tS0nnS5dRX6-17" value="..." style="text;align=center;fontStyle=1;verticalAlign=middle;spacingLeft=3;spacingRight=3;strokeColor=none;rotatable=0;points=[[0,0.5],[1,0.5]];portConstraint=eastwest;" parent="0rOHmXvBeCBObqylr4Vl-1" vertex="1">
                    <mxGeometry x="534" y="370" width="80" height="26" as="geometry"/>
                </mxCell>
                <mxCell id="W4xcReXj6tS0nnS5dRX6-18" value="" style="rounded=0;whiteSpace=wrap;html=1;fillColor=#f8cecc;strokeColor=#b85450;" parent="0rOHmXvBeCBObqylr4Vl-1" vertex="1">
                    <mxGeometry x="399" y="250" width="90" height="160" as="geometry"/>
                </mxCell>
                <mxCell id="W4xcReXj6tS0nnS5dRX6-19" value="公共信息文件" style="text;align=center;fontStyle=1;verticalAlign=middle;spacingLeft=3;spacingRight=3;strokeColor=none;rotatable=0;points=[[0,0.5],[1,0.5]];portConstraint=eastwest;" parent="0rOHmXvBeCBObqylr4Vl-1" vertex="1">
                    <mxGeometry x="394" y="250" width="110" height="26" as="geometry"/>
                </mxCell>
                <mxCell id="W4xcReXj6tS0nnS5dRX6-20" value="集群1" style="text;align=center;fontStyle=1;verticalAlign=middle;spacingLeft=3;spacingRight=3;strokeColor=none;rotatable=0;points=[[0,0.5],[1,0.5]];portConstraint=eastwest;" parent="0rOHmXvBeCBObqylr4Vl-1" vertex="1">
                    <mxGeometry x="199" y="276" width="80" height="24" as="geometry"/>
                </mxCell>
                <mxCell id="W4xcReXj6tS0nnS5dRX6-21" value="服务清单组" style="text;align=center;fontStyle=0;verticalAlign=middle;spacingLeft=3;spacingRight=3;strokeColor=none;rotatable=0;points=[[0,0.5],[1,0.5]];portConstraint=eastwest;" parent="0rOHmXvBeCBObqylr4Vl-1" vertex="1">
                    <mxGeometry x="199" y="289.75" width="80" height="24" as="geometry"/>
                </mxCell>
                <mxCell id="W4xcReXj6tS0nnS5dRX6-22" value="配置模板组" style="text;align=center;fontStyle=0;verticalAlign=middle;spacingLeft=3;spacingRight=3;strokeColor=none;rotatable=0;points=[[0,0.5],[1,0.5]];portConstraint=eastwest;" parent="0rOHmXvBeCBObqylr4Vl-1" vertex="1">
                    <mxGeometry x="199" y="303.5" width="80" height="24" as="geometry"/>
                </mxCell>
                <mxCell id="W4xcReXj6tS0nnS5dRX6-23" value="集群2" style="text;align=center;fontStyle=1;verticalAlign=middle;spacingLeft=3;spacingRight=3;strokeColor=none;rotatable=0;points=[[0,0.5],[1,0.5]];portConstraint=eastwest;" parent="0rOHmXvBeCBObqylr4Vl-1" vertex="1">
                    <mxGeometry x="199" y="340" width="80" height="24" as="geometry"/>
                </mxCell>
                <mxCell id="W4xcReXj6tS0nnS5dRX6-24" value="配置模板组" style="text;align=center;fontStyle=0;verticalAlign=middle;spacingLeft=3;spacingRight=3;strokeColor=none;rotatable=0;points=[[0,0.5],[1,0.5]];portConstraint=eastwest;" parent="0rOHmXvBeCBObqylr4Vl-1" vertex="1">
                    <mxGeometry x="199" y="370" width="80" height="24" as="geometry"/>
                </mxCell>
                <mxCell id="W4xcReXj6tS0nnS5dRX6-25" value="服务清单组" style="text;align=center;fontStyle=0;verticalAlign=middle;spacingLeft=3;spacingRight=3;strokeColor=none;rotatable=0;points=[[0,0.5],[1,0.5]];portConstraint=eastwest;" parent="0rOHmXvBeCBObqylr4Vl-1" vertex="1">
                    <mxGeometry x="199" y="354.5" width="80" height="24" as="geometry"/>
                </mxCell>
                <mxCell id="W4xcReXj6tS0nnS5dRX6-26" value="文件1" style="rounded=0;whiteSpace=wrap;html=1;fillColor=#f5f5f5;strokeColor=#666666;fontColor=#333333;" parent="0rOHmXvBeCBObqylr4Vl-1" vertex="1">
                    <mxGeometry x="409" y="277" width="70" height="36" as="geometry"/>
                </mxCell>
                <mxCell id="W4xcReXj6tS0nnS5dRX6-27" value="文件2" style="rounded=0;whiteSpace=wrap;html=1;fillColor=#f5f5f5;strokeColor=#666666;fontColor=#333333;" parent="0rOHmXvBeCBObqylr4Vl-1" vertex="1">
                    <mxGeometry x="409" y="327.5" width="70" height="36" as="geometry"/>
                </mxCell>
                <mxCell id="W4xcReXj6tS0nnS5dRX6-28" value="..." style="text;align=center;fontStyle=1;verticalAlign=middle;spacingLeft=3;spacingRight=3;strokeColor=none;rotatable=0;points=[[0,0.5],[1,0.5]];portConstraint=eastwest;" parent="0rOHmXvBeCBObqylr4Vl-1" vertex="1">
                    <mxGeometry x="404" y="378.5" width="80" height="20" as="geometry"/>
                </mxCell>
            </root>
        </mxGraphModel>
    </diagram>
    <diagram id="zsc9DI1W9kOjLmo17weN" name="交互方2.0">
        <mxGraphModel dx="934" dy="553" grid="1" gridSize="10" guides="1" tooltips="1" connect="1" arrows="1" fold="1" page="1" pageScale="1" pageWidth="827" pageHeight="1169" math="0" shadow="0">
            <root>
                <mxCell id="1yBkb42eNVwCP41Y1910-0"/>
                <mxCell id="1yBkb42eNVwCP41Y1910-1" parent="1yBkb42eNVwCP41Y1910-0"/>
                <mxCell id="GgHz5tqwiDe54ZaS1r_T-0" value="" style="rounded=0;whiteSpace=wrap;html=1;" parent="1yBkb42eNVwCP41Y1910-1" vertex="1">
                    <mxGeometry x="180" y="60" width="330" height="470" as="geometry"/>
                </mxCell>
                <mxCell id="GgHz5tqwiDe54ZaS1r_T-1" value="配置服务" style="rounded=1;whiteSpace=wrap;html=1;" parent="1yBkb42eNVwCP41Y1910-1" vertex="1">
                    <mxGeometry x="210" y="320" width="270" height="60" as="geometry"/>
                </mxCell>
                <mxCell id="GgHz5tqwiDe54ZaS1r_T-2" value="clientv3(grpc/http)" style="endArrow=classic;html=1;startArrow=classic;startFill=1;" parent="1yBkb42eNVwCP41Y1910-1" source="GgHz5tqwiDe54ZaS1r_T-1" target="GgHz5tqwiDe54ZaS1r_T-3" edge="1">
                    <mxGeometry width="50" height="50" relative="1" as="geometry">
                        <mxPoint x="397" y="250" as="sourcePoint"/>
                        <mxPoint x="567" y="425" as="targetPoint"/>
                    </mxGeometry>
                </mxCell>
                <mxCell id="GgHz5tqwiDe54ZaS1r_T-3" value="&lt;span style=&quot;color: rgb(0 , 0 , 0) ; font-family: &amp;#34;helvetica&amp;#34; ; font-size: 12px ; font-style: normal ; font-weight: 400 ; letter-spacing: normal ; text-align: center ; text-indent: 0px ; text-transform: none ; word-spacing: 0px ; background-color: rgb(248 , 249 , 250) ; display: inline ; float: none&quot;&gt;etcd&lt;/span&gt;" style="shape=cylinder3;whiteSpace=wrap;html=1;boundedLbl=1;backgroundOutline=1;size=15;" parent="1yBkb42eNVwCP41Y1910-1" vertex="1">
                    <mxGeometry x="315" y="440" width="60" height="80" as="geometry"/>
                </mxCell>
                <mxCell id="GgHz5tqwiDe54ZaS1r_T-4" value="grpc" style="endArrow=classic;html=1;horizontal=1;startArrow=none;startFill=1;" parent="1yBkb42eNVwCP41Y1910-1" source="GgHz5tqwiDe54ZaS1r_T-11" edge="1">
                    <mxGeometry width="50" height="50" relative="1" as="geometry">
                        <mxPoint x="425.5" y="240" as="sourcePoint"/>
                        <mxPoint x="380" y="260" as="targetPoint"/>
                    </mxGeometry>
                </mxCell>
                <mxCell id="GgHz5tqwiDe54ZaS1r_T-5" value="&lt;font style=&quot;font-size: 13px&quot;&gt;配置中心&lt;/font&gt;" style="text;html=1;strokeColor=none;fillColor=none;align=center;verticalAlign=middle;whiteSpace=wrap;rounded=0;" parent="1yBkb42eNVwCP41Y1910-1" vertex="1">
                    <mxGeometry x="317" y="80" width="56" height="20" as="geometry"/>
                </mxCell>
                <mxCell id="GgHz5tqwiDe54ZaS1r_T-6" value="服务端命令行工具&lt;br&gt;proxima" style="rounded=1;whiteSpace=wrap;html=1;" parent="1yBkb42eNVwCP41Y1910-1" vertex="1">
                    <mxGeometry x="210" y="120" width="130" height="60" as="geometry"/>
                </mxCell>
                <mxCell id="GgHz5tqwiDe54ZaS1r_T-7" value="grpc" style="endArrow=classic;html=1;horizontal=1;startArrow=classic;startFill=1;entryX=1;entryY=0.5;entryDx=0;entryDy=0;exitX=0;exitY=0.5;exitDx=0;exitDy=0;" parent="1yBkb42eNVwCP41Y1910-1" source="GgHz5tqwiDe54ZaS1r_T-10" target="GgHz5tqwiDe54ZaS1r_T-1" edge="1">
                    <mxGeometry width="50" height="50" relative="1" as="geometry">
                        <mxPoint x="540" y="380" as="sourcePoint"/>
                        <mxPoint x="435.5" y="300" as="targetPoint"/>
                    </mxGeometry>
                </mxCell>
                <mxCell id="GgHz5tqwiDe54ZaS1r_T-8" value="" style="endArrow=classic;html=1;horizontal=1;startArrow=classic;startFill=1;entryX=0.5;entryY=1;entryDx=0;entryDy=0;" parent="1yBkb42eNVwCP41Y1910-1" target="GgHz5tqwiDe54ZaS1r_T-6" edge="1">
                    <mxGeometry width="50" height="50" relative="1" as="geometry">
                        <mxPoint x="275" y="320" as="sourcePoint"/>
                        <mxPoint x="496" y="330" as="targetPoint"/>
                    </mxGeometry>
                </mxCell>
                <mxCell id="GgHz5tqwiDe54ZaS1r_T-9" value="配置端（网页端）" style="rounded=1;whiteSpace=wrap;html=1;" parent="1yBkb42eNVwCP41Y1910-1" vertex="1">
                    <mxGeometry x="350" y="120" width="120" height="60" as="geometry"/>
                </mxCell>
                <mxCell id="GgHz5tqwiDe54ZaS1r_T-10" value="操控中心" style="rounded=1;whiteSpace=wrap;html=1;" parent="1yBkb42eNVwCP41Y1910-1" vertex="1">
                    <mxGeometry x="580" y="380" width="120" height="60" as="geometry"/>
                </mxCell>
                <mxCell id="GgHz5tqwiDe54ZaS1r_T-11" value="envoy" style="rounded=1;whiteSpace=wrap;html=1;" parent="1yBkb42eNVwCP41Y1910-1" vertex="1">
                    <mxGeometry x="350" y="220" width="120" height="60" as="geometry"/>
                </mxCell>
                <mxCell id="GgHz5tqwiDe54ZaS1r_T-12" value="http" style="endArrow=classic;html=1;horizontal=1;startArrow=classic;startFill=1;entryX=0.5;entryY=0;entryDx=0;entryDy=0;exitX=0.5;exitY=1;exitDx=0;exitDy=0;" parent="1yBkb42eNVwCP41Y1910-1" source="GgHz5tqwiDe54ZaS1r_T-9" target="GgHz5tqwiDe54ZaS1r_T-11" edge="1">
                    <mxGeometry width="50" height="50" relative="1" as="geometry">
                        <mxPoint x="605.7142857142858" y="190" as="sourcePoint"/>
                        <mxPoint x="600" y="230" as="targetPoint"/>
                    </mxGeometry>
                </mxCell>
                <mxCell id="GgHz5tqwiDe54ZaS1r_T-13" value="grpc" style="endArrow=classic;html=1;horizontal=1;startArrow=classic;startFill=1;entryX=0.5;entryY=1;entryDx=0;entryDy=0;" parent="1yBkb42eNVwCP41Y1910-1" target="GgHz5tqwiDe54ZaS1r_T-11" edge="1">
                    <mxGeometry width="50" height="50" relative="1" as="geometry">
                        <mxPoint x="410" y="320" as="sourcePoint"/>
                        <mxPoint x="270" y="190" as="targetPoint"/>
                    </mxGeometry>
                </mxCell>
                <mxCell id="GgHz5tqwiDe54ZaS1r_T-14" value="客户端命令行工具&lt;br&gt;proxctl" style="rounded=1;whiteSpace=wrap;html=1;" parent="1yBkb42eNVwCP41Y1910-1" vertex="1">
                    <mxGeometry x="580" y="260" width="120" height="60" as="geometry"/>
                </mxCell>
                <mxCell id="GgHz5tqwiDe54ZaS1r_T-15" value="grpc" style="endArrow=classic;html=1;horizontal=1;startArrow=classic;startFill=1;entryX=1;entryY=0.5;entryDx=0;entryDy=0;exitX=0;exitY=0.5;exitDx=0;exitDy=0;" parent="1yBkb42eNVwCP41Y1910-1" source="GgHz5tqwiDe54ZaS1r_T-14" target="GgHz5tqwiDe54ZaS1r_T-1" edge="1">
                    <mxGeometry width="50" height="50" relative="1" as="geometry">
                        <mxPoint x="590" y="420" as="sourcePoint"/>
                        <mxPoint x="490" y="360" as="targetPoint"/>
                    </mxGeometry>
                </mxCell>
            </root>
        </mxGraphModel>
    </diagram>
    <diagram id="o1woyFo9Raq2PyLqW76s" name="信息层级3.1">
        <mxGraphModel dx="747" dy="635" grid="1" gridSize="10" guides="1" tooltips="1" connect="1" arrows="1" fold="1" page="1" pageScale="1" pageWidth="827" pageHeight="1169" math="0" shadow="0">
            <root>
                <mxCell id="hMY27bA_Diph0cWAiV0N-0"/>
                <mxCell id="hMY27bA_Diph0cWAiV0N-1" parent="hMY27bA_Diph0cWAiV0N-0"/>
                <mxCell id="hMY27bA_Diph0cWAiV0N-2" value="" style="html=1;fillColor=#fff2cc;strokeColor=#d6b656;" parent="hMY27bA_Diph0cWAiV0N-1" vertex="1">
                    <mxGeometry x="169" y="150" width="391" height="470" as="geometry"/>
                </mxCell>
                <mxCell id="hMY27bA_Diph0cWAiV0N-3" value="" style="html=1;fillColor=#d5e8d4;strokeColor=#82b366;" parent="hMY27bA_Diph0cWAiV0N-1" vertex="1">
                    <mxGeometry x="179" y="200" width="251" height="310" as="geometry"/>
                </mxCell>
                <mxCell id="hMY27bA_Diph0cWAiV0N-4" value="" style="html=1;fillColor=#dae8fc;strokeColor=#6c8ebf;" parent="hMY27bA_Diph0cWAiV0N-1" vertex="1">
                    <mxGeometry x="189" y="250" width="121" height="230" as="geometry"/>
                </mxCell>
                <mxCell id="hMY27bA_Diph0cWAiV0N-31" value="" style="html=1;fillColor=#a0522d;strokeColor=#6D1F00;fontColor=#ffffff;" parent="hMY27bA_Diph0cWAiV0N-1" vertex="1">
                    <mxGeometry x="199" y="280" width="101" height="185.25" as="geometry"/>
                </mxCell>
                <mxCell id="hMY27bA_Diph0cWAiV0N-5" value="" style="html=1;fillColor=#ffe6cc;strokeColor=#d79b00;" parent="hMY27bA_Diph0cWAiV0N-1" vertex="1">
                    <mxGeometry x="210" y="308" width="80" height="62" as="geometry"/>
                </mxCell>
                <mxCell id="hMY27bA_Diph0cWAiV0N-7" value="..." style="text;align=center;fontStyle=1;verticalAlign=middle;spacingLeft=3;spacingRight=3;strokeColor=none;rotatable=0;points=[[0,0.5],[1,0.5]];portConstraint=eastwest;" parent="hMY27bA_Diph0cWAiV0N-1" vertex="1">
                    <mxGeometry x="210" y="439.25" width="80" height="20" as="geometry"/>
                </mxCell>
                <mxCell id="hMY27bA_Diph0cWAiV0N-8" value="配置方案1" style="text;align=center;fontStyle=1;verticalAlign=middle;spacingLeft=3;spacingRight=3;strokeColor=none;rotatable=0;points=[[0,0.5],[1,0.5]];portConstraint=eastwest;" parent="hMY27bA_Diph0cWAiV0N-1" vertex="1">
                    <mxGeometry x="210" y="250" width="80" height="26" as="geometry"/>
                </mxCell>
                <mxCell id="hMY27bA_Diph0cWAiV0N-9" value="配置数据(版本层面)" style="text;align=center;fontStyle=1;verticalAlign=middle;spacingLeft=3;spacingRight=3;strokeColor=none;rotatable=0;points=[[0,0.5],[1,0.5]];portConstraint=eastwest;" parent="hMY27bA_Diph0cWAiV0N-1" vertex="1">
                    <mxGeometry x="304" y="210" width="80" height="26" as="geometry"/>
                </mxCell>
                <mxCell id="hMY27bA_Diph0cWAiV0N-10" value="" style="html=1;fillColor=#dae8fc;strokeColor=#6c8ebf;" parent="hMY27bA_Diph0cWAiV0N-1" vertex="1">
                    <mxGeometry x="330" y="250" width="90" height="40" as="geometry"/>
                </mxCell>
                <mxCell id="hMY27bA_Diph0cWAiV0N-11" value="配置方案2" style="text;align=center;fontStyle=1;verticalAlign=middle;spacingLeft=3;spacingRight=3;strokeColor=none;rotatable=0;points=[[0,0.5],[1,0.5]];portConstraint=eastwest;" parent="hMY27bA_Diph0cWAiV0N-1" vertex="1">
                    <mxGeometry x="345" y="257" width="60" height="26" as="geometry"/>
                </mxCell>
                <mxCell id="hMY27bA_Diph0cWAiV0N-12" value="" style="html=1;fillColor=#dae8fc;strokeColor=#6c8ebf;" parent="hMY27bA_Diph0cWAiV0N-1" vertex="1">
                    <mxGeometry x="330" y="318" width="90" height="40" as="geometry"/>
                </mxCell>
                <mxCell id="hMY27bA_Diph0cWAiV0N-13" value="" style="html=1;fillColor=#dae8fc;strokeColor=#6c8ebf;" parent="hMY27bA_Diph0cWAiV0N-1" vertex="1">
                    <mxGeometry x="330" y="383.75" width="90" height="40" as="geometry"/>
                </mxCell>
                <mxCell id="hMY27bA_Diph0cWAiV0N-14" value="配置方案3" style="text;align=center;fontStyle=1;verticalAlign=middle;spacingLeft=3;spacingRight=3;strokeColor=none;rotatable=0;points=[[0,0.5],[1,0.5]];portConstraint=eastwest;" parent="hMY27bA_Diph0cWAiV0N-1" vertex="1">
                    <mxGeometry x="345" y="327.5" width="60" height="23" as="geometry"/>
                </mxCell>
                <mxCell id="hMY27bA_Diph0cWAiV0N-15" value="..." style="text;align=center;fontStyle=1;verticalAlign=middle;spacingLeft=3;spacingRight=3;strokeColor=none;rotatable=0;points=[[0,0.5],[1,0.5]];portConstraint=eastwest;" parent="hMY27bA_Diph0cWAiV0N-1" vertex="1">
                    <mxGeometry x="340" y="388.5" width="70" height="23" as="geometry"/>
                </mxCell>
                <mxCell id="hMY27bA_Diph0cWAiV0N-16" value="配置中心" style="text;align=center;fontStyle=1;verticalAlign=middle;spacingLeft=3;spacingRight=3;strokeColor=none;rotatable=0;points=[[0,0.5],[1,0.5]];portConstraint=eastwest;" parent="hMY27bA_Diph0cWAiV0N-1" vertex="1">
                    <mxGeometry x="324.5" y="160" width="80" height="26" as="geometry"/>
                </mxCell>
                <mxCell id="hMY27bA_Diph0cWAiV0N-17" value="历史版本1" style="html=1;fillColor=#d5e8d4;strokeColor=#82b366;" parent="hMY27bA_Diph0cWAiV0N-1" vertex="1">
                    <mxGeometry x="440" y="200" width="110" height="50" as="geometry"/>
                </mxCell>
                <mxCell id="hMY27bA_Diph0cWAiV0N-18" value="历史版本2" style="html=1;fillColor=#d5e8d4;strokeColor=#82b366;" parent="hMY27bA_Diph0cWAiV0N-1" vertex="1">
                    <mxGeometry x="440" y="285" width="110" height="50" as="geometry"/>
                </mxCell>
                <mxCell id="hMY27bA_Diph0cWAiV0N-19" value="..." style="text;align=center;fontStyle=1;verticalAlign=middle;spacingLeft=3;spacingRight=3;strokeColor=none;rotatable=0;points=[[0,0.5],[1,0.5]];portConstraint=eastwest;" parent="hMY27bA_Diph0cWAiV0N-1" vertex="1">
                    <mxGeometry x="455" y="370" width="80" height="26" as="geometry"/>
                </mxCell>
                <mxCell id="hMY27bA_Diph0cWAiV0N-20" value="" style="rounded=0;whiteSpace=wrap;html=1;fillColor=#f8cecc;strokeColor=#b85450;" parent="hMY27bA_Diph0cWAiV0N-1" vertex="1">
                    <mxGeometry x="179" y="520" width="370" height="90" as="geometry"/>
                </mxCell>
                <mxCell id="hMY27bA_Diph0cWAiV0N-21" value="公共信息文件" style="text;align=center;fontStyle=1;verticalAlign=middle;spacingLeft=3;spacingRight=3;strokeColor=none;rotatable=0;points=[[0,0.5],[1,0.5]];portConstraint=eastwest;" parent="hMY27bA_Diph0cWAiV0N-1" vertex="1">
                    <mxGeometry x="310" y="552" width="110" height="26" as="geometry"/>
                </mxCell>
                <mxCell id="hMY27bA_Diph0cWAiV0N-22" value="集群1" style="text;align=center;fontStyle=1;verticalAlign=middle;spacingLeft=3;spacingRight=3;strokeColor=none;rotatable=0;points=[[0,0.5],[1,0.5]];portConstraint=eastwest;" parent="hMY27bA_Diph0cWAiV0N-1" vertex="1">
                    <mxGeometry x="210" y="308" width="80" height="24" as="geometry"/>
                </mxCell>
                <mxCell id="hMY27bA_Diph0cWAiV0N-23" value="服务清单组" style="text;align=center;fontStyle=0;verticalAlign=middle;spacingLeft=3;spacingRight=3;strokeColor=none;rotatable=0;points=[[0,0.5],[1,0.5]];portConstraint=eastwest;" parent="hMY27bA_Diph0cWAiV0N-1" vertex="1">
                    <mxGeometry x="210" y="321.75" width="80" height="24" as="geometry"/>
                </mxCell>
                <mxCell id="hMY27bA_Diph0cWAiV0N-24" value="配置模板组" style="text;align=center;fontStyle=0;verticalAlign=middle;spacingLeft=3;spacingRight=3;strokeColor=none;rotatable=0;points=[[0,0.5],[1,0.5]];portConstraint=eastwest;" parent="hMY27bA_Diph0cWAiV0N-1" vertex="1">
                    <mxGeometry x="210" y="335" width="80" height="24" as="geometry"/>
                </mxCell>
                <mxCell id="hMY27bA_Diph0cWAiV0N-32" value="部署信息" style="text;align=center;fontStyle=0;verticalAlign=middle;spacingLeft=3;spacingRight=3;strokeColor=none;rotatable=0;points=[[0,0.5],[1,0.5]];portConstraint=eastwest;" parent="hMY27bA_Diph0cWAiV0N-1" vertex="1">
                    <mxGeometry x="210" y="348.25" width="80" height="24" as="geometry"/>
                </mxCell>
                <mxCell id="hMY27bA_Diph0cWAiV0N-38" value="" style="html=1;fillColor=#ffe6cc;strokeColor=#d79b00;" parent="hMY27bA_Diph0cWAiV0N-1" vertex="1">
                    <mxGeometry x="210" y="378" width="80" height="62" as="geometry"/>
                </mxCell>
                <mxCell id="hMY27bA_Diph0cWAiV0N-39" value="集群1" style="text;align=center;fontStyle=1;verticalAlign=middle;spacingLeft=3;spacingRight=3;strokeColor=none;rotatable=0;points=[[0,0.5],[1,0.5]];portConstraint=eastwest;" parent="hMY27bA_Diph0cWAiV0N-1" vertex="1">
                    <mxGeometry x="210" y="378" width="80" height="24" as="geometry"/>
                </mxCell>
                <mxCell id="hMY27bA_Diph0cWAiV0N-40" value="服务清单组" style="text;align=center;fontStyle=0;verticalAlign=middle;spacingLeft=3;spacingRight=3;strokeColor=none;rotatable=0;points=[[0,0.5],[1,0.5]];portConstraint=eastwest;" parent="hMY27bA_Diph0cWAiV0N-1" vertex="1">
                    <mxGeometry x="210" y="391.75" width="80" height="24" as="geometry"/>
                </mxCell>
                <mxCell id="hMY27bA_Diph0cWAiV0N-41" value="配置模板组" style="text;align=center;fontStyle=0;verticalAlign=middle;spacingLeft=3;spacingRight=3;strokeColor=none;rotatable=0;points=[[0,0.5],[1,0.5]];portConstraint=eastwest;" parent="hMY27bA_Diph0cWAiV0N-1" vertex="1">
                    <mxGeometry x="210" y="405" width="80" height="24" as="geometry"/>
                </mxCell>
                <mxCell id="hMY27bA_Diph0cWAiV0N-42" value="部署信息" style="text;align=center;fontStyle=0;verticalAlign=middle;spacingLeft=3;spacingRight=3;strokeColor=none;rotatable=0;points=[[0,0.5],[1,0.5]];portConstraint=eastwest;" parent="hMY27bA_Diph0cWAiV0N-1" vertex="1">
                    <mxGeometry x="210" y="418.25" width="80" height="24" as="geometry"/>
                </mxCell>
                <mxCell id="hMY27bA_Diph0cWAiV0N-43" value="平台" style="text;align=center;fontStyle=1;verticalAlign=middle;spacingLeft=3;spacingRight=3;strokeColor=none;rotatable=0;points=[[0,0.5],[1,0.5]];portConstraint=eastwest;" parent="hMY27bA_Diph0cWAiV0N-1" vertex="1">
                    <mxGeometry x="209.5" y="285" width="80" height="26" as="geometry"/>
                </mxCell>
            </root>
        </mxGraphModel>
    </diagram>
</mxfile>